<svg width="223" height="81" viewBox="0 0 223 81" fill="none" xmlns="http://www.w3.org/2000/svg">
<g opacity="0.8">
<path d="M120.322 26.4561H110.215V62.7372H120.322V26.4561Z" fill="white"/>
<path d="M106.534 45.8895C107.881 44.0583 108.554 41.7429 108.554 38.9433V38.841C108.554 35.2808 107.483 32.4661 105.342 30.3928C104.131 29.1482 102.561 28.1834 100.624 27.4911C98.6872 26.7987 96.3225 26.4544 93.5228 26.4544H76.3655V57.5875L63.2063 26.4546H53.2998L37.9614 62.7366H48.5358L51.1273 56.2596H65.1218L67.7664 62.7366H76.3698H78.5451H86.422V51.7498H90.7237H90.8259L98.1353 62.7364H109.746L101.094 50.0888C103.375 49.1205 105.187 47.7244 106.534 45.8895ZM54.0819 48.481L58.1754 38.1677L62.2197 48.481H54.0819ZM98.4489 39.5674C98.4489 40.8802 97.9835 41.9245 97.0491 42.7038C96.1147 43.4794 94.7866 43.8691 93.0577 43.8691H86.4216V35.1637H93.0046C94.6958 35.1637 96.0274 35.5194 96.996 36.2268C97.9647 36.9342 98.4489 38.0163 98.4489 39.4654V39.5674Z" fill="white"/>
<path d="M41.2586 41.3797H28.6072V35.266H43.8427L47.5768 26.4547H18.5511V62.7367H28.6072V49.7788H37.7098L41.2586 41.3797Z" fill="white"/>
<path d="M117.001 26.4561L110.215 43.279V26.4561H117.001ZM105.342 30.3928C104.133 29.1469 102.562 28.1849 100.624 27.492C98.6885 26.7991 96.3221 26.4563 93.5245 26.4563H90.7341L76.3662 36.2868V57.5881L69.3812 41.0676L61.4415 46.5005L62.2193 48.4799H58.5482L38.0616 62.5014L37.9619 62.7374H48.5371L51.1284 56.2611H65.1203L67.767 62.7374H86.4218V51.7494H90.8265L98.1358 62.7374H102.367L105.102 55.9514L101.092 50.0908C103.374 49.1214 105.187 47.7244 106.533 45.8888C107.882 44.0568 108.556 41.742 108.556 38.9444V38.8412C108.556 35.2805 107.483 32.4679 105.342 30.3928ZM98.4489 39.5672C98.4489 40.8795 97.9844 41.9262 97.0482 42.704C96.1156 43.4781 94.7849 43.8687 93.0563 43.8687H86.4216V35.1624H93.0048C94.6967 35.1624 96.0274 35.5199 96.9968 36.2277C97.9662 36.9355 98.449 38.0154 98.449 39.4641L98.4489 39.5672Z" fill="url(#paint0_linear_145_146)"/>
<path d="M115.27 23.0533C118.868 23.0533 121.784 20.1365 121.784 16.5385C121.784 12.9404 118.868 10.0237 115.27 10.0237C111.672 10.0237 108.755 12.9404 108.755 16.5385C108.755 20.1365 111.672 23.0533 115.27 23.0533Z" fill="#66C0B5"/>
<path d="M145.172 26.5386H149.948V27.2317H145.923V29.6053H149.521V30.2889H145.923V33.1847H145.172V26.5386H145.172Z" fill="white"/>
<path d="M150.679 29.8805V29.8615C150.679 28.0292 152.056 26.4246 154.078 26.4246C156.1 26.4246 157.458 28.0102 157.458 29.8425C157.468 29.852 157.468 29.852 157.458 29.8615C157.458 31.694 156.082 33.2984 154.059 33.2984C152.037 33.2984 150.679 31.7128 150.679 29.8805ZM156.68 29.8805V29.8615C156.68 28.3521 155.578 27.1177 154.059 27.1177C152.54 27.1177 151.458 28.3329 151.458 29.8425V29.8615C151.458 31.3711 152.559 32.6054 154.078 32.6054C155.598 32.6054 156.68 31.3901 156.68 29.8805Z" fill="white"/>
<path d="M158.758 26.5386H161.616C162.432 26.5386 163.087 26.7855 163.505 27.2032C163.828 27.5259 164.018 27.9912 164.018 28.5134V28.5324C164.018 29.6338 163.258 30.2794 162.214 30.4691L164.255 33.1845H163.334L161.407 30.6021H161.388H159.508V33.1845H158.758V26.5386H158.758ZM161.549 29.928C162.546 29.928 163.258 29.4154 163.258 28.5608V28.5419C163.258 27.7253 162.631 27.2317 161.559 27.2317H159.508V29.928H161.549Z" fill="white"/>
<path d="M169.656 27.2317H167.425V26.5386H172.647V27.2317H170.415V33.1845H169.656V27.2317Z" fill="white"/>
<path d="M173.766 26.5386H174.516V29.4913H178.352V26.5386H179.102V33.1845H178.352V30.1939H174.516V33.1847H173.766V26.5386Z" fill="white"/>
<path d="M180.696 26.5386H185.5V27.2222H181.446V29.4913H185.073V30.1749H181.446V32.5009H185.548V33.1845H180.696V26.5386Z" fill="white"/>
<path d="M130.069 39.7533V39.7343C130.069 37.8545 131.475 36.2974 133.431 36.2974C134.636 36.2974 135.358 36.7247 136.022 37.3513L135.51 37.902C134.95 37.3703 134.323 36.9905 133.421 36.9905C131.95 36.9905 130.848 38.1867 130.848 39.7153V39.7343C130.848 41.2724 131.959 42.4781 133.421 42.4781C134.333 42.4781 134.931 42.1267 135.567 41.5191L136.061 42.0033C135.368 42.7058 134.608 43.171 133.402 43.171C131.484 43.1712 130.069 41.6616 130.069 39.7533Z" fill="white"/>
<path d="M136.695 39.7533V39.7343C136.695 37.902 138.072 36.2974 140.094 36.2974C142.117 36.2974 143.474 37.883 143.474 39.7153C143.484 39.7248 143.484 39.7248 143.474 39.7343C143.474 41.5668 142.098 43.1712 140.075 43.1712C138.053 43.1712 136.695 41.5858 136.695 39.7533ZM142.696 39.7533V39.7343C142.696 38.2248 141.595 36.9905 140.075 36.9905C138.556 36.9905 137.474 38.2057 137.474 39.7153V39.7343C137.474 41.2439 138.575 42.4781 140.094 42.4781C141.613 42.4781 142.696 41.2629 142.696 39.7533Z" fill="white"/>
<path d="M144.869 36.4113H145.628L148.049 40.038L150.471 36.4113H151.23V43.0572H150.48V37.674L148.059 41.2344H148.021L145.599 37.6835V43.0572H144.868V36.4113H144.869Z" fill="white"/>
<path d="M152.919 36.4113H153.678L156.1 40.038L158.521 36.4113H159.28V43.0572H158.53V37.674L156.109 41.2344H156.071L153.65 37.6835V43.0572H152.919L152.919 36.4113Z" fill="white"/>
<path d="M160.675 39.7533V39.7343C160.675 37.902 162.051 36.2974 164.074 36.2974C166.096 36.2974 167.453 37.883 167.453 39.7153C167.463 39.7248 167.463 39.7248 167.453 39.7343C167.453 41.5668 166.077 43.1712 164.055 43.1712C162.032 43.1712 160.675 41.5858 160.675 39.7533ZM166.675 39.7533V39.7343C166.675 38.2248 165.574 36.9905 164.055 36.9905C162.536 36.9905 161.453 38.2057 161.453 39.7153V39.7343C161.453 41.2439 162.554 42.4781 164.074 42.4781C165.593 42.4781 166.675 41.2629 166.675 39.7533Z" fill="white"/>
<path d="M168.848 36.4113H169.551L173.738 41.7375V36.4113H174.469V43.0572H173.871L169.579 37.6076V43.0572H168.848L168.848 36.4113Z" fill="white"/>
<path d="M178.521 39.7533V39.7343C178.521 37.9115 179.86 36.2974 181.854 36.2974C182.974 36.2974 183.667 36.6203 184.332 37.1804L183.847 37.75C183.335 37.3038 182.765 36.9905 181.825 36.9905C180.354 36.9905 179.3 38.2342 179.3 39.7153V39.7343C179.3 41.3199 180.316 42.4971 181.93 42.4971C182.689 42.4971 183.392 42.2027 183.847 41.8325V40.1804H181.825V39.5064H184.569V42.1552C183.952 42.7058 183.022 43.171 181.901 43.171C179.813 43.1712 178.521 41.6521 178.521 39.7533Z" fill="white"/>
<path d="M185.774 39.7533V39.7343C185.774 37.902 187.151 36.2974 189.173 36.2974C191.195 36.2974 192.553 37.883 192.553 39.7153C192.562 39.7248 192.562 39.7248 192.553 39.7343C192.553 41.5668 191.176 43.1712 189.154 43.1712C187.132 43.1712 185.774 41.5858 185.774 39.7533ZM191.775 39.7533V39.7343C191.775 38.2248 190.673 36.9905 189.154 36.9905C187.635 36.9905 186.553 38.2057 186.553 39.7153V39.7343C186.553 41.2439 187.654 42.4781 189.173 42.4781C190.692 42.4781 191.775 41.2629 191.775 39.7533Z" fill="white"/>
<path d="M193.653 39.7533V39.7343C193.653 37.902 195.03 36.2974 197.052 36.2974C199.074 36.2974 200.432 37.883 200.432 39.7153C200.442 39.7248 200.442 39.7248 200.432 39.7343C200.432 41.5668 199.056 43.1712 197.033 43.1712C195.011 43.1712 193.653 41.5858 193.653 39.7533ZM199.654 39.7533V39.7343C199.654 38.2248 198.552 36.9905 197.033 36.9905C195.514 36.9905 194.432 38.2057 194.432 39.7153V39.7343C194.432 41.2439 195.533 42.4781 197.052 42.4781C198.571 42.4783 199.654 41.2629 199.654 39.7533Z" fill="white"/>
<path d="M201.827 36.4113H204.134C206.222 36.4113 207.666 37.845 207.666 39.7153V39.7343C207.666 41.6046 206.222 43.0572 204.134 43.0572H201.827V36.4113ZM204.134 42.3641C205.814 42.3641 206.887 41.2249 206.887 39.7533V39.7343C206.887 38.2627 205.814 37.1044 204.134 37.1044H202.577V42.3641H204.134Z" fill="white"/>
<path d="M130.43 46.2843H131.181V52.9302H130.43V46.2843Z" fill="white"/>
<path d="M133.126 46.2843H133.829L138.015 51.6105V46.2843H138.747V52.9302H138.148L133.857 47.4805V52.9302H133.126V46.2843Z" fill="white"/>
<path d="M140.189 51.9617L140.654 51.411C141.347 52.0376 142.012 52.351 142.933 52.351C143.825 52.351 144.414 51.8762 144.414 51.2211V51.2021C144.414 50.585 144.081 50.2336 142.686 49.9394C141.157 49.607 140.455 49.1134 140.455 48.0216V48.0026C140.455 46.9582 141.376 46.1893 142.638 46.1893C143.607 46.1893 144.3 46.4645 144.974 47.0058L144.537 47.585C143.92 47.0818 143.303 46.8634 142.62 46.8634C141.755 46.8634 141.205 47.3382 141.205 47.9362V47.9551C141.205 48.5817 141.547 48.9329 143.009 49.2463C144.49 49.5692 145.173 50.1104 145.173 51.1261V51.1451C145.173 52.2844 144.224 53.0249 142.904 53.0249C141.85 53.0251 140.986 52.6737 140.189 51.9617Z" fill="white"/>
<path d="M148.316 46.9772H146.085V46.2841H151.307V46.9772H149.076V52.93H148.316L148.316 46.9772Z" fill="white"/>
<path d="M152.778 46.2843H153.528V52.9302H152.778V46.2843Z" fill="white"/>
<path d="M157.23 46.9772H154.999V46.2841H160.221V46.9772H157.989V52.93H157.23V46.9772Z" fill="white"/>
<path d="M161.521 50.1483V46.2843H162.271V50.1009C162.271 51.5345 163.03 52.3415 164.303 52.3415C165.527 52.3415 166.306 51.601 166.306 50.1483V46.2843H167.056V50.0914C167.056 52.0281 165.945 53.0346 164.284 53.0346C162.641 53.0344 161.521 52.0281 161.521 50.1483Z" fill="white"/>
<path d="M170.587 46.9772H168.355V46.2841H173.577V46.9772H171.346V52.93H170.587V46.9772Z" fill="white"/>
<path d="M174.982 46.2843H179.786V46.9679H175.732V49.237H179.358V49.9206H175.732V52.2466H179.833V52.9302H174.982V46.2843Z" fill="white"/>
<path d="M130.411 56.157H133.497C134.256 56.157 134.855 56.3659 135.234 56.7456C135.538 57.0495 135.69 57.4197 135.69 57.8756V57.8946C135.69 58.6446 135.291 59.0623 134.817 59.3282C135.586 59.6226 136.06 60.0688 136.06 60.9613V60.9803C136.06 62.1955 135.073 62.8031 133.573 62.8031H130.411V56.157ZM133.184 58.8439C133.829 58.8439 134.238 58.6349 134.238 58.1413V58.1223C134.238 57.6854 133.896 57.4387 133.279 57.4387H131.835V58.8439H133.184ZM133.573 61.5212C134.218 61.5212 134.608 61.2933 134.608 60.7996V60.7806C134.608 60.3345 134.275 60.0591 133.525 60.0591H131.835V61.5212H133.573Z" fill="white"/>
<path d="M137.222 56.157H140.261C141.105 56.157 141.761 56.3942 142.197 56.8311C142.568 57.2013 142.767 57.7236 142.767 58.3502V58.3692C142.767 59.4422 142.188 60.1162 141.343 60.4295L142.967 62.8031H141.258L139.833 60.6764H139.814H138.684V62.8031H137.223V56.157H137.222ZM140.166 59.385C140.878 59.385 141.286 59.0053 141.286 58.4452V58.4262C141.286 57.7996 140.849 57.4767 140.137 57.4767H138.684V59.385H140.166Z" fill="white"/>
<path d="M143.858 59.9546V56.157H145.32V59.9166C145.32 60.9989 145.861 61.559 146.754 61.559C147.646 61.559 148.187 61.0179 148.187 59.9641V56.157H149.649V59.9071C149.649 61.9199 148.52 62.9072 146.735 62.9072C144.95 62.9074 143.858 61.9104 143.858 59.9546Z" fill="white"/>
<path d="M150.55 61.8344L151.414 60.7995C152.012 61.2931 152.638 61.6065 153.398 61.6065C153.996 61.6065 154.357 61.3693 154.357 60.9799V60.9609C154.357 60.5905 154.129 60.4008 153.018 60.1159C151.679 59.774 150.815 59.4038 150.815 58.0841V58.0651C150.815 56.8594 151.784 56.0619 153.142 56.0619C154.11 56.0619 154.936 56.3658 155.61 56.9069L154.851 58.0081C154.262 57.6 153.683 57.3531 153.123 57.3531C152.562 57.3531 152.268 57.6095 152.268 57.9322V57.9512C152.268 58.388 152.553 58.5303 153.702 58.8247C155.05 59.1761 155.81 59.6602 155.81 60.8184V60.8374C155.81 62.1571 154.803 62.8977 153.37 62.8977C152.363 62.8979 151.347 62.5465 150.55 61.8344Z" fill="white"/>
<path d="M156.467 61.8344L157.331 60.7995C157.929 61.2931 158.555 61.6065 159.315 61.6065C159.913 61.6065 160.274 61.3693 160.274 60.9799V60.9609C160.274 60.5905 160.046 60.4008 158.935 60.1159C157.596 59.774 156.732 59.4038 156.732 58.0841V58.0651C156.732 56.8594 157.701 56.0619 159.058 56.0619C160.027 56.0619 160.853 56.3658 161.527 56.9069L160.768 58.0081C160.179 57.6 159.6 57.3531 159.04 57.3531C158.479 57.3531 158.185 57.6095 158.185 57.9322V57.9512C158.185 58.388 158.47 58.5303 159.619 58.8247C160.967 59.1761 161.727 59.6602 161.727 60.8184V60.8374C161.727 62.1571 160.72 62.8977 159.287 62.8977C158.28 62.8979 157.264 62.5465 156.467 61.8344Z" fill="white"/>
<path d="M162.902 56.157H167.915V57.4577H164.354V58.8059H167.488V60.1066H164.354V61.5022H167.962V62.8029H162.902V56.157Z" fill="white"/>
<path d="M169.238 56.157H170.7V61.4737H174.013V62.8029H169.238L169.238 56.157Z" fill="white"/>
<path d="M174.67 61.8344L175.534 60.7995C176.132 61.2931 176.758 61.6065 177.518 61.6065C178.116 61.6065 178.477 61.3693 178.477 60.9799V60.9609C178.477 60.5905 178.249 60.4008 177.138 60.1159C175.799 59.774 174.935 59.4038 174.935 58.0841V58.0651C174.935 56.8594 175.904 56.0619 177.262 56.0619C178.23 56.0619 179.056 56.3658 179.73 56.9069L178.971 58.0081C178.382 57.6 177.803 57.3531 177.243 57.3531C176.682 57.3531 176.388 57.6095 176.388 57.9322V57.9512C176.388 58.388 176.673 58.5303 177.822 58.8247C179.17 59.1761 179.93 59.6602 179.93 60.8184V60.8374C179.93 62.1571 178.923 62.8977 177.49 62.8977C176.483 62.8979 175.467 62.5465 174.67 61.8344Z" fill="white"/>
<path d="M139.127 25.9058C139.787 25.9058 140.322 25.3708 140.322 24.7107C140.322 24.0507 139.787 23.5156 139.127 23.5156C138.467 23.5156 137.932 24.0507 137.932 24.7107C137.932 25.3708 138.467 25.9058 139.127 25.9058Z" fill="#66C0B5"/>
<path d="M135.143 27.1063L134.881 26.4825H133.105L130.784 31.9735L130.271 33.1847H132.212L132.684 31.9983H135.252L135.735 33.1847H137.715L135.143 27.1063ZM133.227 30.5635L133.977 28.6722L134.721 30.5635H133.227Z" fill="white"/>
<path d="M138.198 26.5347V33.185H140.053V26.5347H138.198Z" fill="white"/>
<path d="M135.143 27.1063L130.784 31.9737L130.271 33.1848H132.212L132.684 31.9985H135.252L135.735 33.1848H137.715L135.143 27.1063ZM133.227 30.5635L133.977 28.6722L134.721 30.5635H133.227ZM139.89 26.5336L138.934 33.185H138.199V26.5336H139.89Z" fill="url(#paint1_linear_145_146)"/>
</g>
<defs>
<linearGradient id="paint0_linear_145_146" x1="127.907" y1="23.5064" x2="47.6746" y2="77.4706" gradientUnits="userSpaceOnUse">
<stop stop-color="#66C0B5"/>
<stop offset="0.251" stop-color="#93CFC6"/>
<stop offset="0.8028" stop-color="#E5F3F0"/>
<stop offset="1" stop-color="white"/>
</linearGradient>
<linearGradient id="paint1_linear_145_146" x1="137.879" y1="24.6669" x2="132.771" y2="37.9478" gradientUnits="userSpaceOnUse">
<stop stop-color="#66C0B5"/>
<stop offset="1" stop-color="#66C0B5" stop-opacity="0"/>
</linearGradient>
</defs>
</svg>
